<svg width="721" height="250" viewBox="0 0 721 250" fill="none" xmlns="http://www.w3.org/2000/svg">
<path d="M152.54 6.64575H139.782C136.331 6.64575 133.089 8.42357 131.102 11.3517L27.5701 168.323C26.7335 169.682 27.6747 171.46 29.2434 171.46H42.0018C45.4529 171.46 48.6948 169.682 50.6818 166.754L154.214 9.78308C155.155 8.52815 154.109 6.64575 152.54 6.64575Z" fill="white"/>
<path fill-rule="evenodd" clip-rule="evenodd" d="M45.191 0L49.3754 14.2391C53.0815 27.1508 63.2435 37.2871 76.1553 41.0279L90.3821 45.1307L76.1553 49.2335C63.2435 52.9743 53.0815 63.1106 49.3754 76.0223L45.191 90.3821L41.0067 76.143C37.3005 63.2313 27.1385 53.0949 14.2268 49.3542L0 45.2514L14.2268 41.1486C27.1385 37.4078 37.3005 27.2715 41.0067 14.3598L45.191 0Z" fill="white"/>
<path d="M149.651 119.472C152.805 123.88 156.687 127.799 161.054 130.982C156.687 134.166 152.805 138.084 149.651 142.492C146.497 138.084 142.615 134.166 138.247 130.982C142.493 127.799 146.375 123.88 149.651 119.472ZM149.529 85.0654L145.284 99.6364C141.523 112.738 131.211 123.023 118.11 126.819L103.674 130.982L118.11 135.145C131.211 138.941 141.523 149.227 145.284 162.328L149.529 176.777L153.775 162.206C157.536 149.104 167.847 138.819 180.949 135.023L195.385 130.86L180.949 126.697C167.847 122.901 157.536 112.616 153.775 99.5139L149.529 85.0654Z" fill="white"/>
<path d="M295.538 54.4132C313.489 51.5334 332.879 53.3573 348.814 62.8606C361.869 70.2521 372.14 82.3472 377.036 96.5541C378.284 100.586 380.108 104.714 379.82 108.937C378.572 110.665 376.172 110.473 374.348 110.569C369.645 110.473 364.941 110.761 360.333 110.473C357.261 110.473 356.397 107.209 355.63 104.81C352.462 93.5784 344.014 84.0751 333.551 79.1794C320.784 73.2278 305.905 72.9399 292.562 77.1636C276.531 82.2512 264.148 96.3622 260.308 112.681C257.909 122.568 257.909 132.936 259.828 142.919C262.996 158.758 273.939 172.965 289.01 179.108C302.161 184.388 317.232 184.772 330.479 179.684C341.135 175.556 350.254 167.109 354.382 156.358C355.438 153.766 355.821 150.886 357.453 148.486C358.893 146.663 361.485 147.142 363.501 147.046C368.205 147.142 372.908 146.855 377.516 147.238C379.148 147.43 380.3 148.966 379.916 150.598C377.228 164.997 369.837 178.628 358.509 187.94C346.99 197.635 332.207 203.298 317.232 204.162C300.722 205.41 283.539 202.242 269.524 193.123C255.125 183.812 243.894 169.509 238.806 153.094C235.35 141.959 234.486 130.152 235.926 118.633C238.806 87.2428 264.244 59.4048 295.538 54.4132Z" fill="white"/>
<path d="M604.155 60.0766C603.963 58.1567 604.827 55.5649 607.131 55.5649C612.602 55.373 618.074 55.469 623.641 55.5649C624.697 56.8129 625.561 58.3487 625.369 60.0766C625.369 105.769 625.369 151.558 625.369 197.251C625.561 199.363 624.793 202.05 622.298 202.05C617.114 202.146 611.834 202.338 606.651 201.954C603.963 201.378 604.155 198.211 604.155 196.195C604.155 150.79 604.155 105.481 604.155 60.0766Z" fill="white"/>
<path d="M538.976 101.833C550.687 100.873 563.07 102.217 573.341 108.264C583.708 114.12 591.676 124.487 593.884 136.294C594.268 138.118 593.98 141.094 591.58 141.094C586.3 141.478 581.021 141.286 575.837 141.19C572.957 141.286 572.093 138.214 571.133 136.102C568.35 128.615 561.438 123.143 553.759 121.512C545.887 119.784 537.248 120.552 530.336 124.775C522.849 129.191 518.049 137.254 516.609 145.606C514.881 155.781 516.609 167.204 523.617 175.268C534.656 188.611 559.038 188.707 568.926 174.02C571.229 171.14 571.133 166.148 574.973 164.708C579.965 164.324 584.956 164.516 589.948 164.516C591.676 164.42 594.268 165.668 593.98 167.78C591.676 186.595 574.589 201.09 556.254 203.586C542.623 205.793 527.648 203.874 516.033 195.906C505.378 188.611 497.699 177.092 495.395 164.324C492.323 148.39 495.491 130.631 506.626 118.344C514.689 108.84 526.593 102.985 538.976 101.833Z" fill="white"/>
<path d="M642.937 112.105C651.576 103.754 664.247 101.45 675.863 101.546C685.942 101.258 696.597 102.602 705.428 107.786C713.588 112.585 718.867 121.609 719.347 131.016C719.539 132.456 718.291 133.32 717.523 134.28C712.052 134.088 706.484 134.472 701.013 134.088C697.461 132.36 698.037 127.656 695.541 125.064C690.837 119.209 682.678 118.441 675.766 118.345C669.815 118.729 663.095 119.113 658.68 123.624C655.8 126.504 655.608 131.016 656.472 134.76C659.64 140.711 667.127 141.383 673.079 142.535C685.078 144.743 698.037 144.647 708.788 151.174C716.372 155.59 720.979 164.517 720.403 173.253C721.171 182.18 716.851 191.108 709.652 196.291C700.533 202.915 688.918 204.259 677.974 204.547C667.799 204.067 657.048 203.203 648.12 197.635C641.017 193.411 636.313 185.732 634.873 177.668C634.489 175.365 636.505 173.349 638.809 173.637C643.705 173.637 648.696 173.445 653.592 173.733C656.472 174.789 656.856 178.436 658.584 180.644C662.327 185.54 668.759 187.364 674.615 187.46C681.238 187.652 688.342 188.036 694.197 184.388C700.533 180.836 701.973 170.661 695.733 166.245C690.069 162.694 683.062 162.118 676.63 161.254C665.975 159.43 654.456 159.046 645.241 152.71C632.09 143.975 631.61 122.664 642.937 112.105Z" fill="white"/>
<path d="M390.956 107.977C390.764 106.057 391.916 103.85 394.028 103.85C398.347 103.562 402.763 103.754 407.179 103.754C409.866 103.274 412.65 105.002 412.266 107.977C412.458 124.68 412.074 141.383 412.458 158.086C412.554 165.957 414.858 174.692 421.674 179.3C433.865 186.788 452.103 182.852 459.207 170.181C462.375 164.901 462.855 158.662 462.951 152.71C462.951 138.503 462.951 124.392 462.951 110.185C462.951 108.457 462.951 106.537 463.718 104.906C465.542 103.466 467.942 103.946 470.15 103.85C474.086 103.946 478.021 103.562 481.861 104.138C484.069 104.714 484.165 107.305 484.165 109.129C484.165 139.655 484.165 170.181 484.165 200.707C484.357 210.498 483.109 220.673 478.021 229.217C472.07 239.584 461.031 246.399 449.416 248.511C436.84 250.911 423.401 250.335 411.498 245.343C400.651 240.832 392.012 230.848 390.188 219.041C389.132 216.737 391.628 214.722 393.74 214.818C398.539 214.818 403.339 214.626 408.139 214.914C412.074 216.449 411.978 221.537 414.762 224.225C421.098 231.424 431.753 232.096 440.68 231.136C448.936 230.752 457.287 226.145 460.551 218.273C465.062 207.618 462.855 195.811 463.335 184.58C458.823 192.739 450.855 198.595 441.736 200.707C431.369 203.106 419.946 202.818 410.25 198.211C400.939 193.699 394.411 184.484 392.204 174.405C390.38 167.301 390.86 159.91 390.764 152.614C390.956 137.735 390.86 122.856 390.956 107.977Z" fill="white"/>
</svg>
